<svg id="visual" viewBox="0 0 960 540" width="960" height="540" xmlns="http://www.w3.org/2000/svg" xmlns:xlink="http://www.w3.org/1999/xlink" version="1.1"><rect x="0" y="0" width="960" height="540" fill="#ffffff"></rect><defs><linearGradient id="grad1_0" x1="43.8%" y1="100%" x2="100%" y2="0%"><stop offset="14.444444444444446%" stop-color="#ffffff" stop-opacity="1"></stop><stop offset="85.55555555555554%" stop-color="#ffffff" stop-opacity="1"></stop></linearGradient></defs><defs><linearGradient id="grad2_0" x1="0%" y1="100%" x2="56.3%" y2="0%"><stop offset="14.444444444444446%" stop-color="#ffffff" stop-opacity="1"></stop><stop offset="85.55555555555554%" stop-color="#ffffff" stop-opacity="1"></stop></linearGradient></defs><g transform="translate(960, 540)"><path d="M-162 0C-156.8 -16.8 -151.6 -33.5 -141.7 -46C-131.9 -58.6 -117.4 -66.8 -108.4 -78.8C-99.5 -90.7 -96.1 -106.4 -87.6 -120.5C-79.1 -134.7 -65.5 -147.4 -50.1 -154.1C-34.6 -160.7 -17.3 -161.4 0 -162L0 0Z" fill="#8112e9"></path></g><g transform="translate(0, 0)"><path d="M162 0C149.5 14.6 137 29.2 128.4 41.7C119.8 54.2 115 64.6 111.6 81.1C108.3 97.7 106.3 120.4 95.2 131.1C84.2 141.8 64 140.5 46.7 143.6C29.3 146.8 14.6 154.4 0 162L0 0Z" fill="#8112e9"></path></g></svg>